<?xml version="1.0" encoding="UTF-8" standalone="no"?>
<svg
   width="24"
   height="24"
   viewBox="0 0 24 24"
   fill="none"
   version="1.1"
   id="svg2"
   sodipodi:docname="g4-logo-monochrome.svg"
   xml:space="preserve"
   inkscape:version="1.3.1 (91b66b0783, 2023-11-16)"
   xmlns:inkscape="http://www.inkscape.org/namespaces/inkscape"
   xmlns:sodipodi="http://sodipodi.sourceforge.net/DTD/sodipodi-0.dtd"
   xmlns="http://www.w3.org/2000/svg"
   xmlns:svg="http://www.w3.org/2000/svg"><defs
     id="defs2" /><sodipodi:namedview
     id="namedview2"
     pagecolor="#ffffff"
     bordercolor="#000000"
     borderopacity="0.25"
     inkscape:showpageshadow="2"
     inkscape:pageopacity="0.0"
     inkscape:pagecheckerboard="0"
     inkscape:deskcolor="#d1d1d1"
     inkscape:zoom="22.627417"
     inkscape:cx="11.468388"
     inkscape:cy="9.2586794"
     inkscape:window-width="3840"
     inkscape:window-height="2054"
     inkscape:window-x="-11"
     inkscape:window-y="-11"
     inkscape:window-maximized="1"
     inkscape:current-layer="svg2" /><path
     style="font-weight:bold;font-size:16.9956px;font-family:Arial;-inkscape-font-specification:Arial;text-align:end;letter-spacing:-0.22px;text-anchor:end;display:inline;opacity:1;fill:#1a1a1a;fill-opacity:1;stroke-width:0.442594;stroke-linecap:square;stroke-linejoin:round;stroke-dasharray:1.77038, 1.77038;stroke-opacity:0.997788;paint-order:fill markers stroke"
     d="m 7.8476422,14.712231 v -1.932722 h 5.6151468 v 4.569677 c -0.545672,0.469487 -1.337778,0.884201 -2.376316,1.244141 -1.032671,0.354724 -2.08001,0.532085 -3.1420179,0.532085 -1.3495129,0 -2.5259362,-0.250393 -3.5292697,-0.75118 C 3.4118519,17.868229 2.6578849,17.148349 2.1532843,16.214591 1.6486838,15.275617 1.3963836,14.255785 1.3963836,13.155098 c 0,-1.194583 0.281638,-2.256147 0.8449124,-3.1846876 0.5413496,-0.8923986 1.3238694,-1.5848357 2.3475597,-2.077313 0.041461,-0.019946 0.083317,-0.039564 0.1255695,-0.058854 0.8273101,-0.380807 1.8570472,-0.57121 3.0892112,-0.57121 1.6018131,0 2.8515786,0.29995 3.7492976,0.899851 0.903587,0.594684 1.484465,1.418895 1.742633,2.4726326 l -2.587544,0.430364 C 10.526132,10.502496 10.182886,10.059091 9.6782858,9.7356664 9.1795527,9.4070254 8.5546696,9.2427054 7.8036364,9.2427054 c -0.4170269,0 -0.8029458,0.043061 -1.1577567,0.1291825 -0.6136537,0.1489494 -1.1342555,0.4267048 -1.5618053,0.8332661 -0.668889,0.641632 -1.0033336,1.593648 -1.0033336,2.856047 0,0.185794 0.00634,0.365275 0.019012,0.53844 0.080205,1.095807 0.4141792,1.938766 1.0019242,2.528878 0.6806239,0.678148 1.572476,1.017222 2.6755561,1.017222 0.5456726,0 1.0913452,-0.09389 1.6370178,-0.281693 0.5515404,-0.193011 1.0238691,-0.425146 1.4169881,-0.696406 V 14.712231 Z M 19.935958,18.929792 V 16.62148 h -5.280702 v -1.924898 l 5.597545,-7.2848776 h 2.077076 v 7.2770526 h 1.601814 v 1.932723 h -1.601814 v 2.308312 z m 0,-4.241035 v -3.920219 l -2.965994,3.920219 z"
     id="text2-7"
     aria-label="G4"
     sodipodi:nodetypes="cccccsccssscsccccsscsscscccccccccccccccccccc" /><path
     id="path4-5"
     style="display:inline;opacity:1;fill:#1a1a1a;fill-opacity:1;stroke:#000000;stroke-width:0;stroke-linecap:square;stroke-linejoin:round;stroke-dasharray:none;stroke-dashoffset:0;stroke-opacity:0.997788;paint-order:fill markers stroke"
     d="M 0.4198453,12 C -0.2520297,7.09375 2.8959387,2.9379788 8.657892,0.9143019 3.3866617,3.7878221 2.0058792,6.7826273 1.9032535,9.992014 c -0.1026257,3.209386 2.1964992,3.607627 2.1964992,3.607627 0.080205,1.095807 0.4141792,1.938766 1.0019242,2.528878 0.068807,0.06856 0.1397721,0.133647 0.2128962,0.195272 0,0 -4.2228528,0.582459 -4.8947278,-4.323791 z"
     sodipodi:nodetypes="scscccs" /><path
     id="path3"
     style="font-weight:bold;font-size:16.9956px;font-family:Arial;-inkscape-font-specification:Arial;text-align:end;letter-spacing:-0.22px;text-anchor:end;display:inline;opacity:1;fill:#1a1a1a;fill-opacity:1;stroke-width:0.442594;stroke-linecap:square;stroke-linejoin:round;stroke-dasharray:1.77038, 1.77038;stroke-opacity:0.997788;paint-order:fill markers stroke"
     d="m 4.7144252,7.8342434 c 0.8273101,-0.380807 1.8570472,-0.57121 3.0892112,-0.57121 1.3773946,0 2.4944766,0.22179 3.3417656,0.6604898 0,0 3.32612,1.8268894 6.76977,9.4530578 0,0 -3.017267,-5.305475 -4.929036,-6.689597 l -2.278113,0.3789 C 10.526132,10.502496 10.182886,10.059091 9.6782858,9.7356664 9.1795527,9.4070254 8.5546696,9.2427054 7.8036364,9.2427054 c -0.4170269,0 -0.8029458,0.043061 -1.1577567,0.1291825 v 0 c 0,0 -0.6858286,-1.0739056 -2.057024,-1.4787905 0.041461,-0.019946 0.083317,-0.039564 0.1255695,-0.058854 z"
     sodipodi:nodetypes="cscccccscccc" /><path
     id="path10"
     style="display:inline;fill:#1a1a1a;fill-opacity:1;stroke:#000000;stroke-width:0;stroke-linecap:square;stroke-linejoin:round;stroke-dasharray:none;stroke-dashoffset:0;stroke-opacity:0.997788;paint-order:fill markers stroke"
     d="m 7e-7,18.517359 c 6.3197668,0.37565 6.5318888,-1.541145 6.5318888,-1.541145 l -0.00737,-0.0022 c 0.3819107,0.114485 0.7994809,0.171727 1.2527104,0.171727 0.5456726,0 1.0913452,-0.09389 1.6370178,-0.281693 0.086924,-0.03042 0.1718802,-0.06181 0.2615488,-0.09678 0,0 -0.5700161,0.979653 -1.7313446,2.358147 -1.0127442,0 -1.9280081,-0.141016 -2.7430318,-0.422098 0,0 -1.6769348,0.476957 -5.2014201,-0.185956"
     sodipodi:nodetypes="cccsccccc" /></svg>
