<?xml version="1.0" encoding="UTF-8" standalone="no"?>
<svg
   width="24"
   height="24"
   viewBox="0 0 24 24"
   fill="none"
   version="1.1"
   id="svg2"
   sodipodi:docname="geant4_logo.svg"
   xml:space="preserve"
   inkscape:version="1.3.1 (91b66b0783, 2023-11-16)"
   xmlns:inkscape="http://www.inkscape.org/namespaces/inkscape"
   xmlns:sodipodi="http://sodipodi.sourceforge.net/DTD/sodipodi-0.dtd"
   xmlns="http://www.w3.org/2000/svg"
   xmlns:svg="http://www.w3.org/2000/svg"><defs
     id="defs2" /><sodipodi:namedview
     id="namedview2"
     pagecolor="#ffffff"
     bordercolor="#000000"
     borderopacity="0.25"
     inkscape:showpageshadow="2"
     inkscape:pageopacity="0.0"
     inkscape:pagecheckerboard="0"
     inkscape:deskcolor="#d1d1d1"
     inkscape:zoom="32"
     inkscape:cx="26.921875"
     inkscape:cy="13.453125"
     inkscape:window-width="3840"
     inkscape:window-height="2054"
     inkscape:window-x="-11"
     inkscape:window-y="-11"
     inkscape:window-maximized="1"
     inkscape:current-layer="svg2" /><path
     id="path2"
     style="display:inline;opacity:1;fill:#1a1a1a;fill-opacity:1;stroke:none;stroke-width:5;stroke-linecap:square;stroke-linejoin:round;stroke-dasharray:20, 20;stroke-opacity:0.997788;paint-order:fill markers stroke"
     d="M 8.5271538,0.8515625 C 2.7652121,2.8752354 -0.3830011,7.0312598 0.28887256,11.9375 c 0.18767907,1.370494 0.65221352,2.312718 1.22460944,2.958984 0.1236649,0.433471 0.2928763,0.852266 0.5097656,1.25586 0.5045996,0.933756 1.2583873,1.654155 2.2617188,2.160156 1.0033313,0.500785 2.1797867,0.75 3.5292968,0.75 1.0620059,0 2.107956,-0.176526 3.1406258,-0.53125 1.038536,-0.35994 1.831281,-0.774654 2.376953,-1.244141 V 12.716797 H 7.716607 v 1.933594 h 2.984375 v 1.455078 c -0.393117,0.271258 -0.8664297,0.502301 -1.4179688,0.695312 -0.5456714,0.187803 -1.0910473,0.283203 -1.6367187,0.283203 -1.0093424,0 -1.8404598,-0.285725 -2.4960938,-0.853515 -0.061011,-0.05282 -0.1217388,-0.106322 -0.1796875,-0.164063 -0.5877438,-0.59011 -0.9217483,-1.433492 -1.0019531,-2.529297 -0.012672,-0.173163 -0.019531,-0.353268 -0.019531,-0.539062 10e-8,-1.262397 0.3350187,-2.213839 1.0039063,-2.855469 0.6747551,-0.641631 1.5824206,-0.9628905 2.7207031,-0.9628905 0.7510318,0 1.3743148,0.1655004 1.8730469,0.4941406 0.5045996,0.3234239 0.8493606,0.7666949 1.0312496,1.3300779 l 2.28125,-0.380859 c 0.752613,0.545995 1.673195,1.702502 2.517579,2.902344 l -0.851563,1.109375 v 1.923828 h 2.814453 c 0.251996,0.421682 0.445313,0.755859 0.445313,0.755859 -0.117187,-0.259517 -0.234743,-0.509616 -0.351563,-0.755859 h 2.371094 v 2.308594 h 2.394531 v -2.308594 h 1.601563 V 14.626953 H 22.199029 V 7.3496094 H 20.120904 L 15.63067,13.197266 C 14.383348,11.15067 13.252561,9.8281636 12.421685,9.0136719 c -0.0017,-0.00217 -0.0042,-0.00369 -0.0059,-0.00586 -0.270852,-0.3453243 -0.601287,-0.649652 -0.994141,-0.9082031 -0.12624,-0.084361 -0.260225,-0.1618774 -0.40039,-0.234375 -0.0011,-6.395e-4 -0.01563,-0.00977 -0.01563,-0.00977 l 0.002,0.00391 C 10.152806,7.4208867 9.0431023,7.2011719 7.6736382,7.2011719 c -1.2321614,0 -2.2625354,0.1895063 -3.0898437,0.5703125 C 3.4983188,8.2670534 2.6744122,8.9796631 2.1111382,9.9082031 1.987922,10.111321 1.8792758,10.321262 1.7830132,10.537109 1.7696595,10.346175 1.7663544,10.145257 1.7732476,9.9296875 1.8758731,6.7203072 3.2559341,3.7250769 8.5271538,0.8515625 Z M 19.804498,10.705078 v 3.921875 h -2.964844 z" /></svg>
